<?xml version="1.0" encoding="UTF-8"?>
<svg version="1.1" xmlns="http://www.w3.org/2000/svg" width="540" height="360">
<path d="M0 0 C178.2 0 356.4 0 540 0 C540 118.8 540 237.6 540 360 C361.8 360 183.6 360 0 360 C0 241.2 0 122.4 0 0 Z " fill="#FDF9F8" transform="translate(0,0)"/>
<path d="M0 0 C178.2 0 356.4 0 540 0 C540 39.27 540 78.54 540 119 C361.8 119 183.6 119 0 119 C0 79.73 0 40.46 0 0 Z " fill="#20851F" transform="translate(0,241)"/>
<path d="M0 0 C178.2 0 356.4 0 540 0 C540 39.27 540 78.54 540 119 C361.8 119 183.6 119 0 119 C0 79.73 0 40.46 0 0 Z " fill="#F6931D" transform="translate(0,0)"/>
<path d="M0 0 C9.87673087 7.31670866 17.24762006 17.64220457 20.03515625 29.7734375 C21.68844027 46.0271518 18.7892321 59.36131812 8.37109375 72.140625 C2.84734988 78.12384846 -3.21978743 81.55937392 -10.6640625 84.73046875 C-11.48390625 85.09269531 -12.30375 85.45492187 -13.1484375 85.828125 C-24.33706427 89.84143678 -37.02376193 88.63250424 -47.6640625 83.73046875 C-60.52088782 76.8416658 -69.25101666 67.71430775 -73.6640625 53.73046875 C-74.251875 51.90515625 -74.251875 51.90515625 -74.8515625 50.04296875 C-77.77087583 37.26785399 -75.07219797 24.93543534 -68.3515625 13.85546875 C-61.07556598 3.26382825 -51.0772604 -4.58505743 -38.4140625 -7.83203125 C-24.67812791 -10.01729357 -11.67023894 -7.64797212 0 0 Z " fill="#F9F7F6" transform="translate(297.6640625,140.26953125)"/>
<path d="M0 0 C9.87673087 7.31670866 17.24762006 17.64220457 20.03515625 29.7734375 C21.68844027 46.0271518 18.7892321 59.36131812 8.37109375 72.140625 C2.84734988 78.12384846 -3.21978743 81.55937392 -10.6640625 84.73046875 C-11.48390625 85.09269531 -12.30375 85.45492187 -13.1484375 85.828125 C-24.33706427 89.84143678 -37.02376193 88.63250424 -47.6640625 83.73046875 C-60.52088782 76.8416658 -69.25101666 67.71430775 -73.6640625 53.73046875 C-74.251875 51.90515625 -74.251875 51.90515625 -74.8515625 50.04296875 C-77.77087583 37.26785399 -75.07219797 24.93543534 -68.3515625 13.85546875 C-61.07556598 3.26382825 -51.0772604 -4.58505743 -38.4140625 -7.83203125 C-24.67812791 -10.01729357 -11.67023894 -7.64797212 0 0 Z M-34.6640625 -1.26953125 C-36.489375 -1.05296875 -36.489375 -1.05296875 -38.3515625 -0.83203125 C-39.4446875 -0.64640625 -40.5378125 -0.46078125 -41.6640625 -0.26953125 C-41.9940625 0.39046875 -42.3240625 1.05046875 -42.6640625 1.73046875 C-44.66166555 2.07787798 -46.66194021 2.41012918 -48.6640625 2.73046875 C-49.6540625 3.39046875 -50.6440625 4.05046875 -51.6640625 4.73046875 C-51.6640625 5.72046875 -51.6640625 6.71046875 -51.6640625 7.73046875 C-52.80875 7.88515625 -52.80875 7.88515625 -53.9765625 8.04296875 C-56.86214062 8.7811399 -57.92586067 9.35187678 -59.6640625 11.73046875 C-59.6640625 12.72046875 -59.6640625 13.71046875 -59.6640625 14.73046875 C-60.2828125 14.93671875 -60.9015625 15.14296875 -61.5390625 15.35546875 C-64.53428363 17.29355301 -64.81918012 19.35093925 -65.6640625 22.73046875 C-65.6640625 23.39046875 -65.6640625 24.05046875 -65.6640625 24.73046875 C-66.3240625 25.06046875 -66.9840625 25.39046875 -67.6640625 25.73046875 C-68.11551231 28.08803998 -68.41986779 30.34849934 -68.6640625 32.73046875 C-68.76847656 33.5709375 -68.87289062 34.41140625 -68.98046875 35.27734375 C-69.4651507 39.42474878 -69.81868052 42.6852113 -68.6640625 46.73046875 C-68.4475 48.55578125 -68.4475 48.55578125 -68.2265625 50.41796875 C-68.0409375 51.51109375 -67.8553125 52.60421875 -67.6640625 53.73046875 C-67.0040625 54.06046875 -66.3440625 54.39046875 -65.6640625 54.73046875 C-65.31665327 56.7280718 -64.98440207 58.72834646 -64.6640625 60.73046875 C-62.83072917 63.89713542 -62.83072917 63.89713542 -59.6640625 65.73046875 C-58.96468718 67.04693994 -58.29677117 68.38069026 -57.6640625 69.73046875 C-57.0040625 70.39046875 -56.3440625 71.05046875 -55.6640625 71.73046875 C-54.3440625 71.73046875 -53.0240625 71.73046875 -51.6640625 71.73046875 C-51.6228125 72.34921875 -51.5815625 72.96796875 -51.5390625 73.60546875 C-50.81193257 76.05846757 -50.81193257 76.05846757 -47.7890625 77.04296875 C-44.65524763 78.01235151 -44.65524763 78.01235151 -41.6640625 76.73046875 C-41.6640625 77.72046875 -41.6640625 78.71046875 -41.6640625 79.73046875 C-40.5915625 79.87484375 -39.5190625 80.01921875 -38.4140625 80.16796875 C-34.6640625 80.73046875 -34.6640625 80.73046875 -32.6640625 81.29296875 C-29.66622744 81.94874517 -26.71967068 81.78923045 -23.6640625 81.73046875 C-23.6640625 81.07046875 -23.6640625 80.41046875 -23.6640625 79.73046875 C-22.024375 80.00890625 -22.024375 80.00890625 -20.3515625 80.29296875 C-16.72782117 80.98827555 -16.72782117 80.98827555 -13.6640625 79.73046875 C-13.3340625 79.07046875 -13.0040625 78.41046875 -12.6640625 77.73046875 C-11.5503125 77.82328125 -11.5503125 77.82328125 -10.4140625 77.91796875 C-7.17218487 77.69693164 -5.94243792 77.00884417 -3.6640625 74.73046875 C-3.6640625 73.74046875 -3.6640625 72.75046875 -3.6640625 71.73046875 C-2.9009375 71.62734375 -2.1378125 71.52421875 -1.3515625 71.41796875 C1.55249661 70.67506991 2.62589516 70.16052892 4.3359375 67.73046875 C4.3359375 66.41046875 4.3359375 65.09046875 4.3359375 63.73046875 C4.9546875 63.62734375 5.5734375 63.52421875 6.2109375 63.41796875 C8.70120234 62.85521502 8.70120234 62.85521502 10.3359375 59.73046875 C10.50307319 57.10515351 10.50307319 57.10515351 10.3359375 54.73046875 C10.9959375 54.40046875 11.6559375 54.07046875 12.3359375 53.73046875 C12.78738731 51.37289752 13.09174279 49.11243816 13.3359375 46.73046875 C13.44035156 45.89 13.54476562 45.04953125 13.65234375 44.18359375 C14.1370257 40.03618872 14.49055552 36.7757262 13.3359375 32.73046875 C13.119375 30.90515625 13.119375 30.90515625 12.8984375 29.04296875 C12.7128125 27.94984375 12.5271875 26.85671875 12.3359375 25.73046875 C11.6759375 25.40046875 11.0159375 25.07046875 10.3359375 24.73046875 C10.42875 23.61671875 10.42875 23.61671875 10.5234375 22.48046875 C10.30240039 19.23859112 9.61431292 18.00884417 7.3359375 15.73046875 C6.3459375 15.73046875 5.3559375 15.73046875 4.3359375 15.73046875 C4.2328125 14.96734375 4.1296875 14.20421875 4.0234375 13.41796875 C3.28053866 10.51390964 2.76599767 9.44051109 0.3359375 7.73046875 C-0.9840625 7.73046875 -2.3040625 7.73046875 -3.6640625 7.73046875 C-3.7671875 7.11171875 -3.8703125 6.49296875 -3.9765625 5.85546875 C-4.53931623 3.36520391 -4.53931623 3.36520391 -7.6640625 1.73046875 C-8.4890625 1.75109375 -9.3140625 1.77171875 -10.1640625 1.79296875 C-11.4015625 1.76203125 -11.4015625 1.76203125 -12.6640625 1.73046875 C-13.0971875 1.21484375 -13.5303125 0.69921875 -13.9765625 0.16796875 C-15.54343698 -1.48589564 -15.54343698 -1.48589564 -17.625 -1.24609375 C-19.64720029 -0.98356248 -21.65725963 -0.63141373 -23.6640625 -0.26953125 C-23.6640625 -0.92953125 -23.6640625 -1.58953125 -23.6640625 -2.26953125 C-27.54104775 -2.34408866 -30.93570768 -2.31813104 -34.6640625 -1.26953125 Z " fill="#231F85" transform="translate(297.6640625,140.26953125)"/>
<path d="M0 0 C6.29538243 0.40124415 10.01992454 1.74982282 15.125 5.375 C16.2922986 6.17735602 17.46155226 6.97687572 18.6328125 7.7734375 C19.19000977 8.15338867 19.74720703 8.53333984 20.32128906 8.92480469 C22.77788844 10.49822872 25.36401762 11.7581238 28 13 C26 14 26 14 23.96875 13.51171875 C23.1540625 13.23972656 22.339375 12.96773437 21.5 12.6875 C16.3885705 11.06316818 11.27324246 9.95367151 6 9 C8.72838435 9.81520635 11.45764417 10.62724843 14.1875 11.4375 C14.95642578 11.66759766 15.72535156 11.89769531 16.51757812 12.13476562 C20.32525141 13.26235986 24.08151762 14.3168177 28 15 C28 15.33 28 15.66 28 16 C19.42 16 10.84 16 2 16 C2 16.66 2 17.32 2 18 C10.58 18 19.16 18 28 18 C28 18.33 28 18.66 28 19 C26.90300781 19.26554687 25.80601562 19.53109375 24.67578125 19.8046875 C23.22130753 20.16126815 21.76688302 20.5180496 20.3125 20.875 C19.59126953 21.04902344 18.87003906 21.22304687 18.12695312 21.40234375 C14.27971155 22.35097866 10.64284431 23.40490841 7 25 C17.58323306 22.83244982 17.58323306 22.83244982 28 20 C25.57315174 22.73424904 22.98372893 24.20393896 19.75 25.875 C15.17495165 28.24006737 11.14363209 30.95927496 7 34 C9.75303561 32.56825986 12.50185432 31.12860078 15.25 29.6875 C16.02730469 29.28337891 16.80460937 28.87925781 17.60546875 28.46289062 C21.28009819 26.53135464 24.79006379 24.66631798 28 22 C28.66 22.33 29.32 22.66 30 23 C29.28714844 23.6290625 28.57429688 24.258125 27.83984375 24.90625 C22.15800967 29.98395906 16.83896054 35.08754992 12 41 C18.41069287 35.72898586 24.18590512 29.90871848 30 24 C30 27.63751114 28.98791679 28.95557627 27.0625 32 C25.35102112 34.71894517 24.01887363 36.9433791 23 40 C23.42152344 39.4225 23.84304688 38.845 24.27734375 38.25 C24.82519531 37.5075 25.37304688 36.765 25.9375 36 C26.75541016 34.88625 26.75541016 34.88625 27.58984375 33.75 C28.05519531 33.1725 28.52054687 32.595 29 32 C29.33 32 29.66 32 30 32 C29.89171875 33.03060547 29.89171875 33.03060547 29.78125 34.08203125 C29.64203125 35.43361328 29.64203125 35.43361328 29.5 36.8125 C29.36078125 38.15248047 29.36078125 38.15248047 29.21875 39.51953125 C28.95607599 42.08305099 28.95607599 42.08305099 29 45 C30.65 38.73 32.3 32.46 34 26 C34.33 26 34.66 26 35 26 C35 34.91 35 43.82 35 53 C35.66 53 36.32 53 37 53 C36.98839844 52.07058594 36.97679687 51.14117187 36.96484375 50.18359375 C36.87521968 37.90509666 36.87521968 37.90509666 38 32 C39.6645255 34.49678825 40.44736157 36.02421568 41.2890625 38.79296875 C41.61777344 39.8612793 41.61777344 39.8612793 41.953125 40.95117188 C42.17484375 41.68916016 42.3965625 42.42714844 42.625 43.1875 C42.96917969 44.31188477 42.96917969 44.31188477 43.3203125 45.45898438 C43.88459381 47.30465449 44.44288216 49.15215496 45 51 C44.3781885 47.97847907 43.75265425 44.95780786 43.125 41.9375 C42.95097656 41.08994141 42.77695312 40.24238281 42.59765625 39.36914062 C41.58438314 34.50918257 40.43195336 29.75382714 39 25 C42.21159254 27.73988988 43.99909422 31.29299304 46 34.9375 C48.13058315 38.79417589 50.23428933 42.5515045 53 46 C52.34 44.35 51.68 42.7 51 41 C54.82501277 39.6229954 58.06132308 40.34355385 62 41 C62.66 41 63.32 41 64 41 C64 40.67 64 40.34 64 40 C66.31 40 68.62 40 71 40 C69.515 40.495 69.515 40.495 68 41 C67.896875 41.763125 67.79375 42.52625 67.6875 43.3125 C66.94460116 46.21655911 66.43006017 47.28995766 64 49 C62.68 49 61.36 49 60 49 C59.896875 49.61875 59.79375 50.2375 59.6875 50.875 C59 53 59 53 56 55 C53.3125 55.125 53.3125 55.125 51 55 C50.505 55.99 50.505 55.99 50 57 C46.18015204 57.77811718 43.73159669 58.24386556 40 57 C40 57.66 40 58.32 40 59 C36.12301475 59.07455741 32.72835482 59.04859979 29 58 C26.66905466 57.6503582 24.33595238 57.31445513 22 57 C22 56.01 22 55.02 22 54 C20.9171875 54.3403125 20.9171875 54.3403125 19.8125 54.6875 C17 55 17 55 14.1875 53.75 C13.465625 53.1725 12.74375 52.595 12 52 C12 51.01 12 50.02 12 49 C11.236875 48.896875 10.47375 48.79375 9.6875 48.6875 C6.80192188 47.94932885 5.73820183 47.37859197 4 45 C4 44.01 4 43.02 4 42 C3.38125 41.79375 2.7625 41.5875 2.125 41.375 C-0.87022113 39.43691574 -1.15511762 37.3795295 -2 34 C-2 33.34 -2 32.68 -2 32 C-2.66 31.67 -3.32 31.34 -4 31 C-4.45144981 28.64242877 -4.75580529 26.38196941 -5 24 C-5.10441406 23.15953125 -5.20882812 22.3190625 -5.31640625 21.453125 C-5.80056948 17.31015859 -6.16702488 14.03970152 -5 10 C-4.6503582 7.66905466 -4.31445513 5.33595238 -4 3 C-2.68 2.67 -1.36 2.34 0 2 C0 1.34 0 0.68 0 0 Z " fill="#F5F5F5" transform="translate(234,163)"/>
<path d="M0 0 C2 1 2 1 2.77783203 3.04125977 C3.13917236 4.35308228 3.13917236 4.35308228 3.5078125 5.69140625 C3.77207031 6.63564453 4.03632813 7.57988281 4.30859375 8.55273438 C4.57800781 9.54595703 4.84742188 10.53917969 5.125 11.5625 C5.54072266 13.05813477 5.54072266 13.05813477 5.96484375 14.58398438 C6.65033602 17.05412033 7.32836405 19.52606721 8 22 C8.04898438 21.16855469 8.09796875 20.33710938 8.1484375 19.48046875 C8.22320312 18.39378906 8.29796875 17.30710938 8.375 16.1875 C8.44460938 15.10855469 8.51421875 14.02960938 8.5859375 12.91796875 C9 10 9 10 11 7 C11.495 15.415 11.495 15.415 12 24 C12.4125 22.2675 12.825 20.535 13.25 18.75 C14.83531872 12.37838408 16.83586744 6.19579069 19 0 C20.22593201 3.53592259 19.75776142 5.84903969 18.78515625 9.421875 C18.51123047 10.44667969 18.23730469 11.47148437 17.95507812 12.52734375 C17.66052734 13.59082031 17.36597656 14.65429688 17.0625 15.75 C16.77181641 16.82894531 16.48113281 17.90789062 16.18164062 19.01953125 C15.46297315 21.68213534 14.73548127 24.34200049 14 27 C14.42410156 26.17757812 14.84820312 25.35515625 15.28515625 24.5078125 C19.07666059 17.2914548 23.12739185 10.56098909 28 4 C28 8.04882555 26.15632575 10.79562958 24.25 14.25 C23.72792969 15.21486328 23.72792969 15.21486328 23.1953125 16.19921875 C20.85803422 20.5015421 18.4409645 24.75580047 16 29 C16.556875 28.35933594 17.11375 27.71867187 17.6875 27.05859375 C23.28928024 20.70927865 28.92749209 14.71500527 36 10 C34.5735422 13.2586636 32.83295838 15.4024854 30.3046875 17.890625 C29.58925781 18.59960938 28.87382812 19.30859375 28.13671875 20.0390625 C27.01716797 21.13347656 27.01716797 21.13347656 25.875 22.25 C25.12089844 22.99507812 24.36679687 23.74015625 23.58984375 24.5078125 C21.73099228 26.3431342 19.86762995 28.1736191 18 30 C18.495 30.99 18.495 30.99 19 32 C20.02738281 31.73445313 21.05476563 31.46890625 22.11328125 31.1953125 C30.03561722 29.1687575 37.91909836 27.30116213 46 26 C45 28 45 28 42.77514648 28.77783203 C41.81680908 29.01872559 40.85847168 29.25961914 39.87109375 29.5078125 C38.93966553 29.7464502 38.0082373 29.98508789 37.04858398 30.23095703 C35.85692627 30.52599121 34.66526855 30.82102539 33.4375 31.125 C29.663125 32.07375 25.88875 33.0225 22 34 C29.92 34.33 37.84 34.66 46 35 C46 35.66 46 36.32 46 37 C38.41 37.33 30.82 37.66 23 38 C28.61 39.65 34.22 41.3 40 43 C40 43.33 40 43.66 40 44 C34.14023367 43.48455759 28.68662136 42.4964793 23 41 C22.34 41 21.68 41 21 41 C22.175625 41.556875 23.35125 42.11375 24.5625 42.6875 C28.71224807 44.75127845 32.29604736 47.22203552 36 50 C35.01 50.495 35.01 50.495 34 51 C31.8544975 49.97847153 29.75628737 48.85661087 27.6875 47.6875 C23.8495464 45.53001867 20.13339441 43.52772739 16 42 C17.19749961 45.39291555 18.74136025 48.10131465 20.77734375 51.05078125 C23.5502561 55.47149455 26.01392874 60.17565236 28 65 C27.67 65.66 27.34 66.32 27 67 C26.67725098 66.47043701 26.35450195 65.94087402 26.02197266 65.39526367 C24.55695409 62.99228554 23.09098755 60.5898871 21.625 58.1875 C21.11710937 57.35412109 20.60921875 56.52074219 20.0859375 55.66210938 C19.59609375 54.85966797 19.10625 54.05722656 18.6015625 53.23046875 C18.15119629 52.49207764 17.70083008 51.75368652 17.23681641 50.99291992 C16.19092775 49.3076477 15.10021334 47.65032001 14 46 C14.18175781 46.58265625 14.36351562 47.1653125 14.55078125 47.765625 C16.03667518 52.61192522 17.44425944 57.4769686 18.75 62.375 C19.14445312 63.84066406 19.14445312 63.84066406 19.546875 65.3359375 C20 68 20 68 19 72 C17.02 66.06 15.04 60.12 13 54 C12.03813069 57.84747723 11.69340973 61.30167852 11.4375 65.25 C11.35371094 66.51328125 11.26992188 67.7765625 11.18359375 69.078125 C11.09271484 70.52445313 11.09271484 70.52445313 11 72 C10.34 72 9.68 72 9 72 C8.67 64.08 8.34 56.16 8 48 C6.76963844 53.03942428 6.76963844 53.03942428 5.54736328 58.08081055 C4.61461461 61.8561991 3.56540251 65.42495913 2 69 C0.9569917 65.79074369 1.08722617 63.74548967 1.9375 60.5 C2.73647784 57.40991351 3 55.28070186 3 52 C-0.465 56.95 -0.465 56.95 -4 62 C-4.33 61.34 -4.66 60.68 -5 60 C-3.94429559 57.75883981 -2.84583621 55.64811256 -1.625 53.5 C-0.97134985 52.32291906 -0.31770384 51.14583583 0.3359375 49.96875 C0.88507813 48.9890625 1.43421875 48.009375 2 47 C2.33 46.34 2.66 45.68 3 45 C-2.28 50.28 -7.56 55.56 -13 61 C-13.66 60.67 -14.32 60.34 -15 60 C-12.54220967 57.37449113 -10.08367499 54.74968042 -7.625 52.125 C-6.92632812 51.37863281 -6.22765625 50.63226563 -5.5078125 49.86328125 C-4.8375 49.14785156 -4.1671875 48.43242187 -3.4765625 47.6953125 C-2.85861816 47.03547363 -2.24067383 46.37563477 -1.60400391 45.69580078 C-0.42157912 44.44570602 0.78326969 43.21673031 2 42 C1.32195312 42.44730469 0.64390625 42.89460938 -0.0546875 43.35546875 C-12.93081605 51.71960212 -12.93081605 51.71960212 -19 54 C-19.66 53.67 -20.32 53.34 -21 53 C-18.2522289 51.20489709 -15.50140293 49.41453036 -12.75 47.625 C-11.97269531 47.11710937 -11.19539062 46.60921875 -10.39453125 46.0859375 C-9.26337891 45.35117188 -9.26337891 45.35117188 -8.109375 44.6015625 C-7.41811523 44.15119629 -6.72685547 43.70083008 -6.01464844 43.23681641 C-4.05590698 42.03432195 -2.07075576 40.99477483 0 40 C-1.01900391 40.44279297 -1.01900391 40.44279297 -2.05859375 40.89453125 C-5.36200289 42.13605155 -8.61574783 42.93179498 -12.0625 43.6875 C-13.27035156 43.95949219 -14.47820312 44.23148438 -15.72265625 44.51171875 C-18.6640454 44.94994717 -20.26256603 45.01715127 -23 44 C-20.60539412 43.18372554 -18.20943474 42.37188355 -15.8125 41.5625 C-15.13896484 41.33240234 -14.46542969 41.10230469 -13.77148438 40.86523438 C-10.16657428 39.65187439 -6.74666827 38.74933365 -3 38 C-9.93 37.67 -16.86 37.34 -24 37 C-24 36.34 -24 35.68 -24 35 C-13.605 34.505 -13.605 34.505 -3 34 C-4.49273437 33.59007812 -5.98546875 33.18015625 -7.5234375 32.7578125 C-9.47405554 32.21389016 -11.42457112 31.66960027 -13.375 31.125 C-14.35984375 30.85558594 -15.3446875 30.58617187 -16.359375 30.30859375 C-17.30039063 30.04433594 -18.24140625 29.78007812 -19.2109375 29.5078125 C-20.08024902 29.26691895 -20.94956055 29.02602539 -21.84521484 28.77783203 C-24 28 -24 28 -26 26 C-20.76799249 26.65142951 -15.78404771 27.72577803 -10.6875 29.0625 C-5.90533155 30.44853857 -5.90533155 30.44853857 -1 31 C-2.60875 30.2575 -2.60875 30.2575 -4.25 29.5 C-10.1789487 26.5568528 -15.55354737 22.73989747 -21 19 C-20.34 18.67 -19.68 18.34 -19 18 C-16.6683881 19.18831186 -14.50386998 20.57616202 -12.2890625 21.96875 C-9.77940745 23.38374923 -9.77940745 23.38374923 -6 22 C-8.31 19.36 -10.62 16.72 -13 14 C-10 14 -10 14 -7.08203125 16.5546875 C-5.98435681 17.65369246 -4.89478953 18.76084093 -3.8125 19.875 C-3.25369141 20.43058594 -2.69488281 20.98617187 -2.11914062 21.55859375 C2 25.73305861 2 25.73305861 2 28 C2.66 28 3.32 28 4 28 C3.44570313 27.05898437 2.89140625 26.11796875 2.3203125 25.1484375 C1.58825133 23.89079396 0.85649675 22.63297192 0.125 21.375 C-0.23980469 20.75753906 -0.60460937 20.14007813 -0.98046875 19.50390625 C-3.14861194 15.75893164 -4.77764879 12.18172783 -6 8 C-3.49280542 10.32649587 -1.67816399 12.82681521 0.1875 15.6875 C0.71730469 16.49574219 1.24710937 17.30398437 1.79296875 18.13671875 C2.19128906 18.75160156 2.58960938 19.36648437 3 20 C2.33644956 13.25390382 1.28134207 6.65551466 0 0 Z " fill="#3C3893" transform="translate(260,144)"/>
<path d="M0 0 C0.83830296 2.92075397 1.13527361 5.52664783 1.125 8.5625 C1.12886719 9.70912109 1.12886719 9.70912109 1.1328125 10.87890625 C1 13 1 13 0 16 C-0.99 16.495 -0.99 16.495 -2 17 C-1.95875 17.763125 -1.9175 18.52625 -1.875 19.3125 C-2 22 -2 22 -4 25 C-6.32716 25.37400786 -8.66117862 25.70764733 -11 26 C-11.66 26.66 -12.32 27.32 -13 28 C-13.33 27.67 -13.66 27.34 -14 27 C-15.24330078 27.05220703 -15.24330078 27.05220703 -16.51171875 27.10546875 C-19.99902889 27.19554687 -22.66726622 27.06785268 -26 26 C-28.24943638 23.11655259 -29.48778031 20.37860549 -30.81640625 16.98046875 C-31.84288923 13.98950984 -31.84288923 13.98950984 -33.71484375 11.80078125 C-34.13894531 11.20652344 -34.56304687 10.61226562 -35 10 C-34.67 9.01 -34.34 8.02 -34 7 C-30.10391502 8.48904175 -26.40902982 10.24378713 -22.6875 12.125 C-21.61886719 12.66382813 -20.55023438 13.20265625 -19.44921875 13.7578125 C-18.23685547 14.37269531 -18.23685547 14.37269531 -17 15 C-21.8665458 11.65830522 -26.63324933 8.47696185 -32 6 C-29 5 -29 5 -27.203125 5.8671875 C-26.11257813 6.42792969 -26.11257813 6.42792969 -25 7 C-22.92830754 7.43473339 -20.84272249 7.80654223 -18.75 8.125 C-15.90375 8.558125 -15.90375 8.558125 -13 9 C-18.94 7.35 -24.88 5.7 -31 4 C-31 3.67 -31 3.34 -31 3 C-22.09 3 -13.18 3 -4 3 C-4 2.34 -4 1.68 -4 1 C-2.68 0.67 -1.36 0.34 0 0 Z " fill="#F8F7F7" transform="translate(310,178)"/>
<path d="M0 0 C0.12375 0.639375 0.2475 1.27875 0.375 1.9375 C0.58125 2.618125 0.7875 3.29875 1 4 C1.66 4.33 2.32 4.66 3 5 C3.45172493 7.35900796 3.76159554 9.61595542 4 12 C4.0928125 12.886875 4.185625 13.77375 4.28125 14.6875 C4.53045648 17.12418561 4.76939673 19.56149305 5 22 C4.01 22.495 4.01 22.495 3 23 C2.505 20.525 2.505 20.525 2 18 C-7.9 18 -17.8 18 -28 18 C-25.04693969 16.03129313 -23.06902003 15.35455758 -19.67578125 14.4921875 C-18.13374023 14.09580078 -18.13374023 14.09580078 -16.56054688 13.69140625 C-15.48869141 13.42199219 -14.41683594 13.15257812 -13.3125 12.875 C-11.68731445 12.45927734 -11.68731445 12.45927734 -10.02929688 12.03515625 C-7.35412765 11.35163283 -4.67771516 10.67346769 -2 10 C-9.46454465 11.51657175 -16.79857491 13.07379711 -24.01171875 15.546875 C-26 16 -26 16 -29 15 C-28.27554687 14.61328125 -27.55109375 14.2265625 -26.8046875 13.828125 C-20.50363796 10.47236837 -20.50363796 10.47236837 -14.5 6.625 C-12 5 -12 5 -9 5 C-9 4.34 -9 3.68 -9 3 C-5.63316085 0.56839395 -4.26649636 0 0 0 Z " fill="#F9F9F8" transform="translate(307,161)"/>
<path d="M0 0 C0.33 0.99 0.66 1.98 1 3 C2.1446875 3.1546875 2.1446875 3.1546875 3.3125 3.3125 C6.21655911 4.05539884 7.28995766 4.56993983 9 7 C9 8.32 9 9.64 9 11 C9.61875 11.103125 10.2375 11.20625 10.875 11.3125 C13 12 13 12 15 15 C14.67 15.99 14.34 16.98 14 18 C14 17.34 14 16.68 14 16 C9.545 17.485 9.545 17.485 5 19 C5 19.66 5 20.32 5 21 C3.824375 21.5775 2.64875 22.155 1.4375 22.75 C-1.33118408 24.12213444 -3.98875778 25.57744602 -6.625 27.1875 C-9.897694 28.94505789 -12.33327813 29.64227104 -16 30 C-10.44964797 23.21623641 -4.23557973 17.14477032 2 11 C1.236875 11.66 0.47375 12.32 -0.3125 13 C-3 15 -3 15 -6 15 C-4.25 11.125 -4.25 11.125 -2 10 C-2 9.34 -2 8.68 -2 8 C-1.01 8 -0.02 8 1 8 C0.67 7.01 0.34 6.02 0 5 C-0.66 4.67 -1.32 4.34 -2 4 C-2 3.34 -2 2.68 -2 2 C-1.34 2 -0.68 2 0 2 C0 1.34 0 0.68 0 0 Z " fill="#FAF9F7" transform="translate(293,145)"/>
<path d="M0 0 C0.91007812 0.00902344 1.82015625 0.01804688 2.7578125 0.02734375 C3.45648438 0.03894531 4.15515625 0.05054688 4.875 0.0625 C4.875 0.7225 4.875 1.3825 4.875 2.0625 C5.535 2.0625 6.195 2.0625 6.875 2.0625 C7.205 1.4025 7.535 0.7425 7.875 0.0625 C7.875 1.3825 7.875 2.7025 7.875 4.0625 C7.215 4.0625 6.555 4.0625 5.875 4.0625 C5.875 13.3025 5.875 22.5425 5.875 32.0625 C5.545 32.0625 5.215 32.0625 4.875 32.0625 C4.62105469 31.02351563 4.36710937 29.98453125 4.10546875 28.9140625 C2.21513775 21.23482312 0.268084 13.60434048 -2.125 6.0625 C-1.9084375 7.00351563 -1.691875 7.94453125 -1.46875 8.9140625 C-1.05109375 10.78191406 -1.05109375 10.78191406 -0.625 12.6875 C-0.3465625 13.91726562 -0.068125 15.14703125 0.21875 16.4140625 C0.81591621 19.73402228 0.99909534 22.70158451 0.875 26.0625 C-2.99775826 22.59740051 -4.7179184 20.04140413 -6.125 15.0625 C-6.785 14.0725 -7.445 13.0825 -8.125 12.0625 C-8.51887788 9.73862053 -8.85986085 7.40456251 -9.125 5.0625 C-8.465 5.0625 -7.805 5.0625 -7.125 5.0625 C-7.125 3.7425 -7.125 2.4225 -7.125 1.0625 C-4.60024538 -0.19987731 -2.81299534 -0.03606404 0 0 Z " fill="#F8F7F7" transform="translate(263.125,138.9375)"/>
<path d="M0 0 C2.31 0 4.62 0 7 0 C7 0.66 7 1.32 7 2 C9.64 1.67 12.28 1.34 15 1 C12 3 12 3 10 4 C10.99 4.66 11.98 5.32 13 6 C12.59007812 7.18335938 12.18015625 8.36671875 11.7578125 9.5859375 C8.9901919 17.66998803 6.36473824 25.5386229 5 34 C4.67 34 4.34 34 4 34 C3.67 28.06 3.34 22.12 3 16 C2.67 16 2.34 16 2 16 C2 12.37 2 8.74 2 5 C2.66 4.67 3.32 4.34 4 4 C3.67 3.67 3.34 3.34 3 3 C2.34 3 1.68 3 1 3 C0.67 2.01 0.34 1.02 0 0 Z " fill="#F3F2F4" transform="translate(267,138)"/>
<path d="M0 0 C1.21991015 6.15073577 0.74533896 11.73257204 0.0625 17.9375 C-0.03740234 18.90751953 -0.13730469 19.87753906 -0.24023438 20.87695312 C-0.48594957 23.25219998 -0.73938021 25.62635026 -1 28 C-1.66 28 -2.32 28 -3 28 C-3.33 20.08 -3.66 12.16 -4 4 C-5.23036156 9.03942428 -5.23036156 9.03942428 -6.45263672 14.08081055 C-7.38538539 17.8561991 -8.43459749 21.42495913 -10 25 C-11.0430083 21.79074369 -10.91277383 19.74548967 -10.0625 16.5 C-9.26352216 13.40991351 -9 11.28070186 -9 8 C-11.31 11.3 -13.62 14.6 -16 18 C-16.33 17.34 -16.66 16.68 -17 16 C-15.70703125 13.06640625 -15.70703125 13.06640625 -13.8125 9.5625 C-13.20019531 8.40878906 -12.58789062 7.25507813 -11.95703125 6.06640625 C-8.58084455 0.7763732 -6.24299291 -0.42565861 0 0 Z " fill="#8381BA" transform="translate(272,188)"/>
<path d="M0 0 C1.32 0 2.64 0 4 0 C5.60080151 4.00200378 4.29279692 7.04556236 3 11 C2.34 11 1.68 11 1 11 C1.01160156 11.71027344 1.02320313 12.42054688 1.03515625 13.15234375 C1.04869141 14.53099609 1.04869141 14.53099609 1.0625 15.9375 C1.07410156 16.85402344 1.08570313 17.77054688 1.09765625 18.71484375 C1 21 1 21 0 22 C-0.04092937 24.33297433 -0.04241723 26.66705225 0 29 C-0.99 29 -1.98 29 -3 29 C-2.67 27.02 -2.34 25.04 -2 23 C-2.99 23 -3.98 23 -5 23 C-5.33 25.64 -5.66 28.28 -6 31 C-6.33 31 -6.66 31 -7 31 C-7.62923145 20.32054392 -6.71294133 8.84222781 0 0 Z " fill="#221E84" transform="translate(229,155)"/>
<path d="M0 0 C4.30764815 1.56641751 8.06171464 3.68336156 12 6 C11.7525 6.5775 11.505 7.155 11.25 7.75 C11.1675 8.4925 11.085 9.235 11 10 C12.85432087 12.27144074 12.85432087 12.27144074 15 14 C15.66 13.67 16.32 13.34 17 13 C17.33 14.98 17.66 16.96 18 19 C14.7 19 11.4 19 8 19 C7.60167969 18.18015625 7.20335937 17.3603125 6.79296875 16.515625 C6.26316406 15.43796875 5.73335938 14.3603125 5.1875 13.25 C4.66542969 12.18265625 4.14335937 11.1153125 3.60546875 10.015625 C2.13466197 7.02969843 2.13466197 7.02969843 0.23828125 4.796875 C-0.17035156 4.20390625 -0.57898438 3.6109375 -1 3 C-0.67 2.01 -0.34 1.02 0 0 Z " fill="#E5E6EE" transform="translate(276,185)"/>
<path d="M0 0 C3.21355639 2.96414604 5.2901106 6.45521462 7.59765625 10.13671875 C8.06042969 10.75160156 8.52320313 11.36648437 9 12 C9.66 12 10.32 12 11 12 C11.66 14.97 12.32 17.94 13 21 C10.83203125 22.1796875 10.83203125 22.1796875 8 23 C5.32421875 21.8828125 5.32421875 21.8828125 2.6875 20.125 C1.80449219 19.55007812 0.92148438 18.97515625 0.01171875 18.3828125 C-0.65214844 17.92648438 -1.31601563 17.47015625 -2 17 C-1.34 16.01 -0.68 15.02 0 14 C-2.31 11.36 -4.62 8.72 -7 6 C-4 6 -4 6 -1.08203125 8.5546875 C0.01564319 9.65369246 1.10521047 10.76084093 2.1875 11.875 C2.74630859 12.43058594 3.30511719 12.98617187 3.88085938 13.55859375 C8 17.73305861 8 17.73305861 8 20 C8.66 20 9.32 20 10 20 C9.44570313 19.05898437 8.89140625 18.11796875 8.3203125 17.1484375 C7.58825133 15.89079396 6.85649675 14.63297192 6.125 13.375 C5.76019531 12.75753906 5.39539063 12.14007813 5.01953125 11.50390625 C2.85138806 7.75893164 1.22235121 4.18172783 0 0 Z " fill="#DCDEE9" transform="translate(254,152)"/>
<path d="M0 0 C4.92908146 3.87792288 8.5423711 7.76116833 12 13 C9.921875 13.73828125 9.921875 13.73828125 7 14 C4.54947292 12.82409542 2.489514 11.67463795 0.25 10.1875 C-0.33910156 9.81818359 -0.92820313 9.44886719 -1.53515625 9.06835938 C-5.84568496 6.30863007 -5.84568496 6.30863007 -7 4 C-5.35 3.67 -3.7 3.34 -2 3 C-2 2.34 -2 1.68 -2 1 C-1.34 0.67 -0.68 0.34 0 0 Z " fill="#E5E4EB" transform="translate(243,154)"/>
<path d="M0 0 C3.61175017 0.68419311 7.13671402 1.55185955 10.6875 2.5 C15.52626993 3.73963537 20.15333573 4.42912293 25.13671875 4.69140625 C25.75160156 4.79324219 26.36648438 4.89507812 27 5 C27.33 5.66 27.66 6.32 28 7 C26.35 7.33 24.7 7.66 23 8 C23 10.31 23 12.62 23 15 C21.68 15 20.36 15 19 15 C18.77828125 14.41347656 18.5565625 13.82695312 18.328125 13.22265625 C16.59198266 10.31717097 14.62824868 9.19511907 11.75 7.4375 C10.76902344 6.83679688 9.78804688 6.23609375 8.77734375 5.6171875 C5.89528807 3.9390285 3.02892663 2.39166899 0 1 C0 0.67 0 0.34 0 0 Z " fill="#E5E6EF" transform="translate(278,183)"/>
<path d="M0 0 C2 3 2 3 2 5 C1.01 5 0.02 5 -1 5 C-1 6.32 -1 7.64 -1 9 C0.32 8.67 1.64 8.34 3 8 C2.67 9.32 2.34 10.64 2 12 C0.824375 11.505 0.824375 11.505 -0.375 11 C-2.84332497 9.88133489 -2.84332497 9.88133489 -5 10 C-5 10.66 -5 11.32 -5 12 C-6.98 12.99 -6.98 12.99 -9 14 C-8.505 14.45375 -8.01 14.9075 -7.5 15.375 C-6 17 -6 17 -6 19 C-7.98 18.67 -9.96 18.34 -12 18 C-12.33 18.66 -12.66 19.32 -13 20 C-13.6875 18.3125 -13.6875 18.3125 -14 16 C-12.35923508 12.55439366 -11.21487558 11.14325038 -8 9 C-7.30062468 7.68352881 -6.63270867 6.34977849 -6 5 C-5.34 4.34 -4.68 3.68 -4 3 C-2.68 3 -1.36 3 0 3 C0 2.01 0 1.02 0 0 Z " fill="#E0DFEB" transform="translate(246,145)"/>
<path d="M0 0 C2.55402097 0.36720902 3.73275036 0.70546571 5.4921875 2.64453125 C9.43112663 8.81998667 13.26841746 15.18698673 16 22 C15.67 22.66 15.34 23.32 15 24 C14.67725098 23.47043701 14.35450195 22.94087402 14.02197266 22.39526367 C12.55695409 19.99228554 11.09098755 17.5898871 9.625 15.1875 C9.11710937 14.35412109 8.60921875 13.52074219 8.0859375 12.66210938 C7.59609375 11.85966797 7.10625 11.05722656 6.6015625 10.23046875 C6.15119629 9.49207764 5.70083008 8.75368652 5.23681641 7.99291992 C4.19092775 6.3076477 3.10021334 4.65032001 2 3 C2.18175781 3.58265625 2.36351562 4.1653125 2.55078125 4.765625 C4.03667518 9.61192522 5.44425944 14.4769686 6.75 19.375 C7.01296875 20.35210937 7.2759375 21.32921875 7.546875 22.3359375 C8.00679682 25.03996063 7.74318085 26.42084649 7 29 C0.04255319 9.65957447 0.04255319 9.65957447 0 0 Z " fill="#50499C" transform="translate(272,187)"/>
<path d="M0 0 C0.66 0 1.32 0 2 0 C2 1.32 2 2.64 2 4 C2.61875 4.103125 3.2375 4.20625 3.875 4.3125 C6 5 6 5 8 8 C7.67 8.99 7.34 9.98 7 11 C7 10.34 7 9.68 7 9 C4.03 9.99 1.06 10.98 -2 12 C-2 12.66 -2 13.32 -2 14 C-3.175625 14.5775 -4.35125 15.155 -5.5625 15.75 C-8.35475974 17.13871679 -11.06701422 18.59866026 -13.75 20.1875 C-16.3124438 21.6165552 -18.14950586 22.54392094 -21 23 C-17.72898293 19.0280507 -14.58073203 17.24428852 -9.875 15.125 C-4.74687969 12.77868509 -4.74687969 12.77868509 -1.875 8.1875 C-1.58625 7.135625 -1.2975 6.08375 -1 5 C-0.34 4.67 0.32 4.34 1 4 C0.67 2.68 0.34 1.36 0 0 Z " fill="#E6E5EE" transform="translate(300,152)"/>
<path d="M0 0 C2 1 2 1 2.77783203 3.04125977 C3.01872559 3.91580811 3.25961914 4.79035645 3.5078125 5.69140625 C3.77207031 6.63564453 4.03632813 7.57988281 4.30859375 8.55273438 C4.57800781 9.54595703 4.84742188 10.53917969 5.125 11.5625 C5.40214844 12.55958984 5.67929687 13.55667969 5.96484375 14.58398438 C6.65033602 17.05412033 7.32836405 19.52606721 8 22 C8.04898437 21.16855469 8.09796875 20.33710938 8.1484375 19.48046875 C8.22320312 18.39378906 8.29796875 17.30710938 8.375 16.1875 C8.44460938 15.10855469 8.51421875 14.02960938 8.5859375 12.91796875 C9 10 9 10 11 7 C11 13.93 11 20.86 11 28 C9.68 28 8.36 28 7 28 C0 5.96954315 0 5.96954315 0 0 Z " fill="#4C479B" transform="translate(260,144)"/>
<path d="M0 0 C0.66 0 1.32 0 2 0 C1.99214478 0.90093384 1.99214478 0.90093384 1.98413086 1.82006836 C1.96341986 4.52586838 1.95035875 7.23165177 1.9375 9.9375 C1.92912109 10.88302734 1.92074219 11.82855469 1.91210938 12.80273438 C1.90888672 13.70185547 1.90566406 14.60097656 1.90234375 15.52734375 C1.89710693 16.35999756 1.89187012 17.19265137 1.88647461 18.05053711 C1.78356708 20.00516798 1.78356708 20.00516798 3 21 C2.55925456 24.96670899 1.17638397 27.68811135 -1 31 C-3 30 -3 30 -4 27 C-4 24.33333333 -4 21.66666667 -4 19 C-3.01 18.67 -2.02 18.34 -1 18 C-1.01160156 17.28972656 -1.02320313 16.57945312 -1.03515625 15.84765625 C-1.04869141 14.46900391 -1.04869141 14.46900391 -1.0625 13.0625 C-1.07410156 12.14597656 -1.08570313 11.22945312 -1.09765625 10.28515625 C-1 8 -1 8 0 7 C0.04092937 4.66702567 0.04241723 2.33294775 0 0 Z " fill="#242182" transform="translate(311,176)"/>
<path d="M0 0 C-0.66 0 -1.32 0 -2 0 C-1.71125 0.680625 -1.4225 1.36125 -1.125 2.0625 C-0.97318794 5.63008342 -1.6621405 6.1907743 -3.9375 8.8125 C-4.94440237 9.88821119 -5.96114056 10.95511819 -7 12 C-7.99 11.67 -8.98 11.34 -10 11 C-10.99 11.33 -11.98 11.66 -13 12 C-13 11.34 -13 10.68 -13 10 C-13.99 10.33 -14.98 10.66 -16 11 C-16 10.34 -16 9.68 -16 9 C-15.21625 8.71125 -14.4325 8.4225 -13.625 8.125 C-10.90328368 7.15087746 -10.90328368 7.15087746 -9 5 C-8.896875 4.34 -8.79375 3.68 -8.6875 3 C-8 1 -8 1 -5.625 -0.3125 C-3 -1 -3 -1 0 0 Z " fill="#231F80" transform="translate(310,203)"/>
<path d="M0 0 C0.66 0 1.32 0 2 0 C1.95875 0.886875 1.9175 1.77375 1.875 2.6875 C2.64274422 6.06706382 2.64274422 6.06706382 5.046875 7.3359375 C6.80098937 8.1704707 8.56739706 8.97953778 10.34375 9.765625 C13.93922737 11.43646448 16.85188146 13.60469241 20 16 C19.34 16.33 18.68 16.66 18 17 C15.8544975 15.97847153 13.75628737 14.85661087 11.6875 13.6875 C6.0405011 10.40168385 6.0405011 10.40168385 0 8 C-3.28441679 9.26638076 -3.28441679 9.26638076 -6 11 C-6 9.35 -6 7.7 -6 6 C-5.01 6.33 -4.02 6.66 -3 7 C-3.33 5.68 -3.66 4.36 -4 3 C-3.01 3 -2.02 3 -1 3 C-0.67 2.01 -0.34 1.02 0 0 Z " fill="#1F1B80" transform="translate(276,178)"/>
<path d="M0 0 C9.27244773 -0.33786247 17.14087832 -0.09424624 26 3 C25.67 4.98 25.34 6.96 25 9 C24.01 9.33 23.02 9.66 22 10 C22 9.34 22 8.68 22 8 C19.03 7.505 19.03 7.505 16 7 C15.67 5.68 15.34 4.36 15 3 C10.05 2.67 5.1 2.34 0 2 C0 1.34 0 0.68 0 0 Z " fill="#332F90" transform="translate(262,132)"/>
<path d="M0 0 C0.99 0 1.98 0 3 0 C3 0.99 3 1.98 3 3 C3.99 2.67 4.98 2.34 6 2 C8.33299825 1.96045766 10.66708189 1.95598268 13 2 C13 2.66 13 3.32 13 4 C15.475 4.495 15.475 4.495 18 5 C16 7 16 7 12.98828125 7.265625 C0.81139172 7.21386351 0.81139172 7.21386351 -5 5 C-3.625 3.5 -3.625 3.5 -2 2 C-1.34 2 -0.68 2 0 2 C0 1.34 0 0.68 0 0 Z " fill="#2D2988" transform="translate(260,221)"/>
<path d="M0 0 C0.33 0 0.66 0 1 0 C1 1.65 1 3.3 1 5 C1.66 5 2.32 5 3 5 C3 5.99 3 6.98 3 8 C3.66 8 4.32 8 5 8 C5 9.65 5 11.3 5 13 C3.68 13.33 2.36 13.66 1 14 C1 14.66 1 15.32 1 16 C-0.98 16 -2.96 16 -5 16 C-4.67 12.04 -4.34 8.08 -4 4 C-3.67 4 -3.34 4 -3 4 C-3 5.98 -3 7.96 -3 10 C-2.34 10 -1.68 10 -1 10 C-1.01160156 9.36191406 -1.02320313 8.72382813 -1.03515625 8.06640625 C-1.04869141 6.82697266 -1.04869141 6.82697266 -1.0625 5.5625 C-1.07410156 4.73878906 -1.08570313 3.91507813 -1.09765625 3.06640625 C-1 1 -1 1 0 0 Z " fill="#FAFAF8" transform="translate(272,206)"/>
<path d="M0 0 C1.485 0.99 1.485 0.99 3 2 C3.33 1.34 3.66 0.68 4 0 C6.51083114 1.25541557 6.87125446 2.50063488 8 5 C6.35 5 4.7 5 3 5 C3 5.66 3 6.32 3 7 C6.3 7.33 9.6 7.66 13 8 C13 8.33 13 8.66 13 9 C11.02 9.33 9.04 9.66 7 10 C7 10.66 7 11.32 7 12 C6.01 12.33 5.02 12.66 4 13 C2.78130071 15.50447516 2.78130071 15.50447516 2 18 C-0.23257611 15.58137588 -0.97231421 14.3322295 -1.25 11 C-1.04226356 8.50716271 -0.63968495 6.39881858 0 4 C0 2.68 0 1.36 0 0 Z " fill="#EEECF1" transform="translate(229,169)"/>
<path d="M0 0 C0.66 0 1.32 0 2 0 C4.74698349 6.2264959 5.14739595 12.13556798 5.0625 18.875 C5.05798828 19.56335938 5.05347656 20.25171875 5.04882812 20.9609375 C5.03716336 22.64066335 5.01923271 24.32034375 5 26 C4.67 26 4.34 26 4 26 C3.67 20.72 3.34 15.44 3 10 C2.01 10 1.02 10 0 10 C-0.99 11.32 -1.98 12.64 -3 14 C-3 10.7 -3 7.4 -3 4 C-3.66 3.67 -4.32 3.34 -5 3 C-3.68 3 -2.36 3 -1 3 C-0.67 2.01 -0.34 1.02 0 0 Z " fill="#35318D" transform="translate(313,162)"/>
<path d="M0 0 C0.66 0.33 1.32 0.66 2 1 C1.28714844 1.6290625 0.57429688 2.258125 -0.16015625 2.90625 C-5.84199033 7.98395906 -11.16103946 13.08754992 -16 19 C-17.22295649 15.33113052 -16.41371057 14.44591953 -15 11 C-15.33 10.34 -15.66 9.68 -16 9 C-15.18015625 8.60167969 -14.3603125 8.20335937 -13.515625 7.79296875 C-11.89914063 6.99826172 -11.89914063 6.99826172 -10.25 6.1875 C-9.18265625 5.66542969 -8.1153125 5.14335937 -7.015625 4.60546875 C-4.44766758 3.2383308 -2.25529217 1.82284537 0 0 Z " fill="#EBEBF1" transform="translate(262,185)"/>
<path d="M0 0 C0.66 0.99 1.32 1.98 2 3 C2.99 2.01 3.98 1.02 5 0 C7.72149649 4.80264087 7.14766423 9.77072345 6 15 C5.34 15.66 4.68 16.32 4 17 C2.95550089 13.86650268 3.06576355 13.01031744 4 10 C3.01 10 2.02 10 1 10 C0.67 12.64 0.34 15.28 0 18 C-0.33 18 -0.66 18 -1 18 C-1.02717692 15.93757383 -1.0464758 13.87504297 -1.0625 11.8125 C-1.07410156 10.66394531 -1.08570313 9.51539063 -1.09765625 8.33203125 C-1.01192832 5.40699414 -0.67849023 2.83683709 0 0 Z " fill="#373390" transform="translate(223,168)"/>
<path d="M0 0 C-0.39753821 1.46366342 -0.81881384 2.9208935 -1.25 4.375 C-1.59804687 5.59316406 -1.59804687 5.59316406 -1.953125 6.8359375 C-3 9 -3 9 -4.984375 10.3515625 C-7 11 -7 11 -9 10 C-8.67 8.68 -8.34 7.36 -8 6 C-8.99 5.67 -9.98 5.34 -11 5 C-11 4.34 -11 3.68 -11 3 C-9.73581754 2.30034557 -8.46334598 1.61565237 -7.1875 0.9375 C-6.47980469 0.55464844 -5.77210938 0.17179688 -5.04296875 -0.22265625 C-3 -1 -3 -1 0 0 Z " fill="#FAFAF7" transform="translate(248,196)"/>
<path d="M0 0 C1.65 0.99 3.3 1.98 5 3 C3.51481201 7.04301175 1.57122002 10.61146256 -0.625 14.3125 C-1.25664062 15.38113281 -1.88828125 16.44976562 -2.5390625 17.55078125 C-3.26222656 18.76314453 -3.26222656 18.76314453 -4 20 C-5.28961193 17.42077613 -4.79211692 16.59708789 -4.00390625 13.8671875 C-3.77509766 13.06152344 -3.54628906 12.25585938 -3.31054688 11.42578125 C-3.06369141 10.58402344 -2.81683594 9.74226562 -2.5625 8.875 C-2.31951172 8.02550781 -2.07652344 7.17601562 -1.82617188 6.30078125 C-1.2238569 4.19858388 -0.61489475 2.09854569 0 0 Z " fill="#F0F1F4" transform="translate(278,152)"/>
<path d="M0 0 C4.22797927 3.08290155 4.22797927 3.08290155 6 5 C6.375 7.8125 6.375 7.8125 6 10 C1.00724943 8.72278474 -1.57611908 6.82669043 -5 3 C-3.35 2.67 -1.7 2.34 0 2 C0 1.34 0 0.68 0 0 Z " fill="#FBF8F6" transform="translate(241,155)"/>
<path d="M0 0 C3.13969114 2.67598291 4.81843627 6.08594296 6.6875 9.6875 C7.00783203 10.29400391 7.32816406 10.90050781 7.65820312 11.52539062 C8.44371484 13.01434566 9.22252942 14.50683047 10 16 C9.01 16.33 8.02 16.66 7 17 C6.34 17.99 5.68 18.98 5 20 C4.35220924 17.60468067 3.70670991 15.20878252 3.0625 12.8125 C2.88009766 12.13896484 2.69769531 11.46542969 2.50976562 10.77148438 C1.5511642 7.19851542 0.67116718 3.63843262 0 0 Z " fill="#E7E9EF" transform="translate(273,188)"/>
<path d="M0 0 C5.15058939 0.65222868 10.09563653 1.6587677 15.125 2.9375 C15.81464844 3.10701172 16.50429687 3.27652344 17.21484375 3.45117188 C20.93799654 4.3872992 24.47704403 5.47155801 28 7 C28 7.33 28 7.66 28 8 C18.05547545 7.67920889 9.280855 4.30592547 0 1 C0 0.67 0 0.34 0 0 Z " fill="#4F4A9E" transform="translate(234,170)"/>
<path d="M0 0 C0 4.03543628 -1.80146074 6.79688401 -3.6875 10.25 C-4.23180664 11.25945679 -4.23180664 11.25945679 -4.78710938 12.28930664 C-7.23875835 16.77401709 -9.8505013 20.96470479 -13 25 C-13.66 24.67 -14.32 24.34 -15 24 C-10.38927934 15.68872692 -5.65131498 7.66459595 0 0 Z " fill="#37318F" transform="translate(288,148)"/>
<path d="M0 0 C-0.33 0.99 -0.66 1.98 -1 3 C-0.09946473 6.87922884 0.78289234 9.67433852 3 13 C2.67 13.99 2.34 14.98 2 16 C0.66104368 14.33784732 -0.67130142 12.67036393 -2 11 C-2.598125 10.319375 -3.19625 9.63875 -3.8125 8.9375 C-5 7 -5 7 -4.6875 4.75 C-4.460625 4.1725 -4.23375 3.595 -4 3 C-4.99 3.33 -5.98 3.66 -7 4 C-7.66 3.34 -8.32 2.68 -9 2 C-5.86501708 0.14223235 -3.62528568 -0.20140476 0 0 Z " fill="#D9D8E2" transform="translate(256,142)"/>
<path d="M0 0 C0.8971875 0.309375 0.8971875 0.309375 1.8125 0.625 C1.1525 1.285 0.4925 1.945 -0.1875 2.625 C-0.8475 2.625 -1.5075 2.625 -2.1875 2.625 C-3.98008516 4.138293 -3.98008516 4.138293 -5.8828125 6.125 C-6.95595703 7.2078125 -6.95595703 7.2078125 -8.05078125 8.3125 C-8.79714844 9.075625 -9.54351562 9.83875 -10.3125 10.625 C-11.44365234 11.7696875 -11.44365234 11.7696875 -12.59765625 12.9375 C-14.46546966 14.82895662 -16.32847267 16.72491362 -18.1875 18.625 C-18.8475 18.295 -19.5075 17.965 -20.1875 17.625 C-17.75492104 14.99540225 -15.31561041 12.37214342 -12.875 9.75 C-12.18470703 9.00363281 -11.49441406 8.25726563 -10.78320312 7.48828125 C-9.78256836 6.41513672 -9.78256836 6.41513672 -8.76171875 5.3203125 C-8.14901123 4.66047363 -7.53630371 4.00063477 -6.9050293 3.32080078 C-3.01772571 -0.51732441 -3.01772571 -0.51732441 0 0 Z " fill="#454095" transform="translate(265.1875,186.375)"/>
<path d="M0 0 C2.31 0 4.62 0 7 0 C7.33 0.66 7.66 1.32 8 2 C6.35 2.33 4.7 2.66 3 3 C3 5.31 3 7.62 3 10 C1.68 10 0.36 10 -1 10 C-1.28875 9.38125 -1.5775 8.7625 -1.875 8.125 C-2.93720042 5.86674235 -2.93720042 5.86674235 -5 4 C-3.35 3.34 -1.7 2.68 0 2 C0 1.34 0 0.68 0 0 Z " fill="#D1D0E2" transform="translate(298,188)"/>
<path d="M0 0 C4.71697732 1.39708947 8.83134915 3.40873873 13.0625 5.875 C13.66126953 6.21402344 14.26003906 6.55304688 14.87695312 6.90234375 C18.51407326 8.99777112 21.79226693 11.29555964 25 14 C16.21614304 14 6.7768362 5.98365274 0 1 C0 0.67 0 0.34 0 0 Z " fill="#494399" transform="translate(239,162)"/>
<path d="M0 0 C-0.66 0 -1.32 0 -2 0 C-2 2.31 -2 4.62 -2 7 C-1.34 7.33 -0.68 7.66 0 8 C-1.75 12.875 -1.75 12.875 -4 14 C-6.28062828 10.57905758 -6.21925007 9.31812778 -6.125 5.3125 C-6.10695313 4.31863281 -6.08890625 3.32476562 -6.0703125 2.30078125 C-6.04710937 1.54152344 -6.02390625 0.78226563 -6 0 C-3.50907189 -1.24546405 -2.58919267 -0.7767578 0 0 Z " fill="#D6D4E6" transform="translate(275,143)"/>
<path d="M0 0 C0.33 0.66 0.66 1.32 1 2 C1.99 2 2.98 2 4 2 C4.93619813 5.15506142 5.1057123 7.96586502 5.0625 11.25 C5.05347656 12.14203125 5.04445313 13.0340625 5.03515625 13.953125 C5.02355469 14.62859375 5.01195312 15.3040625 5 16 C4.34 15.01 3.68 14.02 3 13 C2.34 14.32 1.68 15.64 1 17 C1 13.37 1 9.74 1 6 C0.34 6 -0.32 6 -1 6 C-0.67 4.02 -0.34 2.04 0 0 Z " fill="#1A1780" transform="translate(312,170)"/>
<path d="M0 0 C0 0.99 0 1.98 0 3 C-0.66 3 -1.32 3 -2 3 C-1.34 4.32 -0.68 5.64 0 7 C-1.89545392 7.48066535 -3.79138039 7.95946743 -5.6875 8.4375 C-7.27111328 8.83775391 -7.27111328 8.83775391 -8.88671875 9.24609375 C-11.5828317 9.89897932 -14.2757576 10.47941193 -17 11 C-14.9007582 8.70578218 -13.00589024 7.35773654 -10.1875 6.0625 C-6.54175951 4.31712701 -3.309155 2.3164085 0 0 Z " fill="#E2E3EE" transform="translate(295,166)"/>
<path d="M0 0 C1.17274808 3.44560499 0.81092199 5.65378851 -0.14453125 9.1328125 C-0.54188477 10.58880859 -0.54188477 10.58880859 -0.94726562 12.07421875 C-1.37555664 13.58435547 -1.37555664 13.58435547 -1.8125 15.125 C-2.08642578 16.13949219 -2.36035156 17.15398437 -2.64257812 18.19921875 C-4.73463422 25.73463422 -4.73463422 25.73463422 -7 28 C-6.67920889 18.05547545 -3.30592547 9.280855 0 0 Z " fill="#4E479E" transform="translate(279,144)"/>
<path d="M0 0 C5.94 0 11.88 0 18 0 C17.67 1.32 17.34 2.64 17 4 C11.147205 3.48517081 5.6702363 2.54642808 0 1 C0 0.67 0 0.34 0 0 Z " fill="#E7E7EF" transform="translate(279,181)"/>
<path d="M0 0 C0.99 0 1.98 0 3 0 C3 0.66 3 1.32 3 2 C3.66 2.33 4.32 2.66 5 3 C4.48050781 3.44730469 3.96101563 3.89460937 3.42578125 4.35546875 C-0.52679654 7.78201031 -4.35827082 11.24446679 -8 15 C-6.6310888 11.36485304 -5.0167935 8.04411097 -3.0625 4.6875 C-2.30646484 3.36298828 -2.30646484 3.36298828 -1.53515625 2.01171875 C-1.02855469 1.34785156 -0.52195312 0.68398437 0 0 Z " fill="#DEDFEC" transform="translate(283,159)"/>
<path d="M0 0 C0.33 0.66 0.66 1.32 1 2 C1.99 1.34 2.98 0.68 4 0 C4.99 0.33 5.98 0.66 7 1 C7 2.65 7 4.3 7 6 C4.75 6.75 4.75 6.75 2 7 C-0.3125 5.1875 -0.3125 5.1875 -2 3 C-2 2.34 -2 1.68 -2 1 C-1.34 0.67 -0.68 0.34 0 0 Z " fill="#E5E4EE" transform="translate(240,205)"/>
<path d="M0 0 C1.33079625 3.99238875 0.23203192 6.94472736 -0.8125 10.875 C-0.99103516 11.58269531 -1.16957031 12.29039062 -1.35351562 13.01953125 C-2.32952706 16.80377774 -3.44199962 20.40461452 -5 24 C-6.68551848 19.87745797 -5.28358669 16.10196511 -4.1875 12 C-3.91969727 10.93265625 -3.91969727 10.93265625 -3.64648438 9.84375 C-2.74658777 6.36111764 -1.79997554 3.12755931 0 0 Z " fill="#423D94" transform="translate(267,189)"/>
<path d="M0 0 C3.63 0 7.26 0 11 0 C10.67 1.32 10.34 2.64 10 4 C9.34 4 8.68 4 8 4 C8 3.01 8 2.02 8 1 C7.484375 1.66 6.96875 2.32 6.4375 3 C3.20004245 5.65637543 1.07447719 5.31342132 -3 5 C-2.34 4.67 -1.68 4.34 -1 4 C-0.67 2.68 -0.34 1.36 0 0 Z " fill="#FAFAFA" transform="translate(297,181)"/>
<path d="M0 0 C-5.97287841 4.19832758 -12.13917375 8.39314541 -19 11 C-19.66 10.67 -20.32 10.34 -21 10 C-18.26351683 8.12525019 -15.5089268 6.27902756 -12.75 4.4375 C-11.97269531 3.90447266 -11.19539062 3.37144531 -10.39453125 2.82226562 C-9.26337891 2.07299805 -9.26337891 2.07299805 -8.109375 1.30859375 C-7.07248535 0.60947876 -7.07248535 0.60947876 -6.01464844 -0.10375977 C-3.56438004 -1.1937907 -2.46980339 -0.91285871 0 0 Z " fill="#3F3B91" transform="translate(260,187)"/>
<path d="M0 0 C0 3 0 3 -1.37695312 4.7175293 C-2.00537109 5.33023682 -2.63378906 5.94294434 -3.28125 6.57421875 C-3.95800781 7.24130859 -4.63476562 7.90839844 -5.33203125 8.59570312 C-6.04746094 9.28599609 -6.76289063 9.97628906 -7.5 10.6875 C-8.57314453 11.7403418 -8.57314453 11.7403418 -9.66796875 12.81445312 C-11.43879577 14.54986361 -13.21623456 16.2779073 -15 18 C-15.66 17.67 -16.32 17.34 -17 17 C-12.88524836 12.04943944 -8.61923992 7.60171545 -3.69921875 3.4453125 C-1.90381734 1.95747294 -1.90381734 1.95747294 0 0 Z " fill="#3F3A91" transform="translate(295,154)"/>
<path d="M0 0 C0 3.62189223 -0.99315118 5.00562117 -2.875 8.0625 C-3.40867187 8.94035156 -3.94234375 9.81820312 -4.4921875 10.72265625 C-6 13 -6 13 -8 15 C-8.99 13.68 -9.98 12.36 -11 11 C-7.37 7.37 -3.74 3.74 0 0 Z " fill="#ECEDF1" transform="translate(264,187)"/>
<path d="M0 0 C-1.32 5.94 -2.64 11.88 -4 18 C-4.33 18 -4.66 18 -5 18 C-5.0809723 15.56183415 -5.14046972 13.12635616 -5.1875 10.6875 C-5.21263672 9.99720703 -5.23777344 9.30691406 -5.26367188 8.59570312 C-5.33777767 3.4824036 -5.33777767 3.4824036 -3.61328125 1.01953125 C-2 0 -2 0 0 0 Z " fill="#E5E7ED" transform="translate(276,154)"/>
<path d="M0 0 C6.73844784 3.21984946 13.08009664 6.42552922 19 11 C18.01 11.495 18.01 11.495 17 12 C14.1015625 10.671875 14.1015625 10.671875 10.625 8.75 C9.48289062 8.12609375 8.34078125 7.5021875 7.1640625 6.859375 C4.60832474 5.35748466 2.2267694 3.95253672 0 2 C0 1.34 0 0.68 0 0 Z " fill="#36328C" transform="translate(277,183)"/>
<path d="M0 0 C3.82097239 0.53069061 6.06171403 1.49701566 9 4 C8.360625 4.103125 7.72125 4.20625 7.0625 4.3125 C6.381875 4.539375 5.70125 4.76625 5 5 C4.67 5.99 4.34 6.98 4 8 C2.35 6.35 0.7 4.7 -1 3 C-0.67 2.01 -0.34 1.02 0 0 Z " fill="#F1F1F5" transform="translate(287,192)"/>
<path d="M0 0 C4.07376031 1.61010527 6.76507069 4.53822271 9.75 7.625 C10.25660156 8.140625 10.76320313 8.65625 11.28515625 9.1875 C12.52803902 10.45383339 13.76465276 11.7263144 15 13 C14.67 13.66 14.34 14.32 14 15 C12.03483377 13.25719203 10.07799631 11.50635594 8.125 9.75 C7.56941406 9.25886719 7.01382812 8.76773438 6.44140625 8.26171875 C3.64150364 5.73168627 1.34491479 3.57508995 0 0 Z " fill="#35308B" transform="translate(277,187)"/>
<path d="M0 0 C4.03082 1.612328 6.75944137 4.46234596 9.75 7.5 C10.25660156 7.99886719 10.76320313 8.49773437 11.28515625 9.01171875 C15 12.74658861 15 12.74658861 15 15 C8.26530618 11.98711066 3.76508421 6.17473811 0 0 Z " fill="#38318F" transform="translate(247,157)"/>
<path d="M0 0 C2.31 0 4.62 0 7 0 C6.01 0.33 5.02 0.66 4 1 C3.896875 1.78375 3.79375 2.5675 3.6875 3.375 C3 6 3 6 0 8 C-1.98 4.535 -1.98 4.535 -4 1 C-2.68 1.33 -1.36 1.66 0 2 C0 1.34 0 0.68 0 0 Z " fill="#E3E2ED" transform="translate(298,203)"/>
<path d="M0 0 C5.57598507 5.25973517 9.4070636 11.51319893 11 19 C5.50783583 14.47704127 2.7774332 8.46158857 0 2 C0 1.34 0 0.68 0 0 Z " fill="#332C90" transform="translate(254,152)"/>
<path d="M0 0 C0 0.66 0 1.32 0 2 C-1.32 2.33 -2.64 2.66 -4 3 C-3.34 3.66 -2.68 4.32 -2 5 C-6.95 5 -11.9 5 -17 5 C-13.86768478 2.91178985 -11.56941553 2.24877798 -7.9375 1.375 C-6.87402344 1.11460937 -5.81054688 0.85421875 -4.71484375 0.5859375 C-2 0 -2 0 0 0 Z " fill="#DDDCE9" transform="translate(296,174)"/>
<path d="M0 0 C4.95 0.99 9.9 1.98 15 3 C15 3.33 15 3.66 15 4 C9.39 4 3.78 4 -2 4 C-1.34 2.68 -0.68 1.36 0 0 Z " fill="#EAEAF2" transform="translate(247,175)"/>
<path d="M0 0 C0.33 0.66 0.66 1.32 1 2 C-0.96347116 7.54616854 -4.5023065 12.33640866 -8 17 C-8.33 16.34 -8.66 15.68 -9 15 C-7.96860223 12.7539762 -6.89276713 10.64943191 -5.6875 8.5 C-5.36587891 7.90574219 -5.04425781 7.31148437 -4.71289062 6.69921875 C-3.31943022 4.16409367 -2.05550458 2.05550458 0 0 Z " fill="#2A228B" transform="translate(264,189)"/>
<path d="M0 0 C4.30764815 1.56641751 8.06171464 3.68336156 12 6 C11.01 6.99 10.02 7.98 9 9 C6.69 7.02 4.38 5.04 2 3 C1.67 3.99 1.34 4.98 1 6 C0.34 4.35 -0.32 2.7 -1 1 C-0.67 0.67 -0.34 0.34 0 0 Z " fill="#D1D2E5" transform="translate(276,185)"/>
<path d="M0 0 C0.66 0.33 1.32 0.66 2 1 C-3.48136179 5.12480746 -8.19603711 8.66878987 -15 10 C-10.8687271 5.18018162 -5.96000986 2.2152249 0 0 Z " fill="#292688" transform="translate(294,165)"/>
<path d="M0 0 C0 0.66 0 1.32 0 2 C-0.66 2 -1.32 2 -2 2 C-2 2.66 -2 3.32 -2 4 C-5.465 5.485 -5.465 5.485 -9 7 C-9.33 6.01 -9.66 5.02 -10 4 C-10.99 3.67 -11.98 3.34 -13 3 C-11.01432292 2.51171875 -9.02864583 2.0234375 -7.04296875 1.53515625 C-1.18248175 0 -1.18248175 0 0 0 Z " fill="#E6E6EE" transform="translate(289,224)"/>
<path d="M0 0 C0.56203125 0.25652344 1.1240625 0.51304687 1.703125 0.77734375 C1.703125 1.43734375 1.703125 2.09734375 1.703125 2.77734375 C-0.37890625 4.28515625 -0.37890625 4.28515625 -3.109375 5.90234375 C-4.00269531 6.44117188 -4.89601563 6.98 -5.81640625 7.53515625 C-8.296875 8.77734375 -8.296875 8.77734375 -11.296875 8.77734375 C-9.89609102 7.241869 -8.47566597 5.72429227 -7.046875 4.21484375 C-5.86351562 2.94447266 -5.86351562 2.94447266 -4.65625 1.6484375 C-2.296875 -0.22265625 -2.296875 -0.22265625 0 0 Z " fill="#DFDFEC" transform="translate(288.296875,165.22265625)"/>
<path d="M0 0 C-1.62170379 1.00533667 -3.24747237 2.00411907 -4.875 3 C-5.77992188 3.556875 -6.68484375 4.11375 -7.6171875 4.6875 C-10 6 -10 6 -12 6 C-12 5.34 -12 4.68 -12 4 C-13.65 4 -15.3 4 -17 4 C-13.48855182 2.03358902 -9.87566461 1.03812445 -6 0 C-5.236875 -0.226875 -4.47375 -0.45375 -3.6875 -0.6875 C-2 -1 -2 -1 0 0 Z " fill="#DADDE8" transform="translate(262,184)"/>
<path d="M0 0 C6.68993219 0.53951066 12.63460728 1.88706171 19 4 C19 4.33 19 4.66 19 5 C3.64974619 3.64974619 3.64974619 3.64974619 0 0 Z " fill="#322E8B" transform="translate(281,183)"/>
<path d="M0 0 C3.41158256 1.13719419 4.11854601 2.04342944 6 5 C6 5.66 6 6.32 6 7 C3.03 6.505 3.03 6.505 0 6 C-0.33 6.66 -0.66 7.32 -1 8 C-1.93065133 5.39417629 -2.14917407 4.35801776 -1.0625 1.75 C-0.711875 1.1725 -0.36125 0.595 0 0 Z " fill="#E8E7F0" transform="translate(234,157)"/>
<path d="M0 0 C5.28 0 10.56 0 16 0 C16 0.33 16 0.66 16 1 C9.07 2.485 9.07 2.485 2 4 C1.34 2.68 0.68 1.36 0 0 Z " fill="#E8E8F1" transform="translate(246,181)"/>
<path d="M0 0 C4.29 2.31 8.58 4.62 13 7 C10.23975889 8.38012056 9.03040064 7.59705421 6.125 6.6875 C5.26132813 6.42324219 4.39765625 6.15898437 3.5078125 5.88671875 C1.22073145 5.07804679 -0.86166935 4.1387854 -3 3 C-2.01 2.01 -1.02 1.02 0 0 Z " fill="#EAEAF1" transform="translate(249,169)"/>
<path d="M0 0 C0.99 0.66 1.98 1.32 3 2 C1.73762269 4.52475462 0.2095347 5.46605403 -2.0625 7.125 C-2.79597656 7.66382813 -3.52945312 8.20265625 -4.28515625 8.7578125 C-4.85105469 9.16773438 -5.41695313 9.57765625 -6 10 C-6.33 9.01 -6.66 8.02 -7 7 C-5 5 -5 5 -3 4 C-3 3.34 -3 2.68 -3 2 C-2.01 2 -1.02 2 0 2 C0 1.34 0 0.68 0 0 Z " fill="#EDECF0" transform="translate(294,151)"/>
<path d="M0 0 C1.65 0 3.3 0 5 0 C4.625 2.4375 4.625 2.4375 4 5 C3.01 5.495 3.01 5.495 2 6 C1.67 6.99 1.34 7.98 1 9 C0.01 9 -0.98 9 -2 9 C-2 7.68 -2 6.36 -2 5 C-1.01 5 -0.02 5 1 5 C0.67 3.35 0.34 1.7 0 0 Z " fill="#FCF9F7" transform="translate(247,145)"/>
<path d="M0 0 C0.99 0 1.98 0 3 0 C2.67 3.96 2.34 7.92 2 12 C-1.51716303 8.48283697 -1.54676163 6.80432667 -2 2 C-1.34 2 -0.68 2 0 2 C0 1.34 0 0.68 0 0 Z " fill="#FBF9F9" transform="translate(256,142)"/>
<path d="M0 0 C0.33 0.66 0.66 1.32 1 2 C1.99 2 2.98 2 4 2 C4 4.31 4 6.62 4 9 C3.01 9 2.02 9 1 9 C0.67 9.99 0.34 10.98 0 12 C0 8.04 0 4.08 0 0 Z " fill="#181480" transform="translate(223,176)"/>
<path d="M0 0 C0.66 0 1.32 0 2 0 C2.92092281 4.65537356 3.12205997 9.14685433 3.0625 13.875 C3.05798828 14.56335938 3.05347656 15.25171875 3.04882812 15.9609375 C3.03716336 17.64066335 3.01923271 19.32034375 3 21 C2.67 21 2.34 21 2 21 C1.67 15.72 1.34 10.44 1 5 C0.34 5 -0.32 5 -1 5 C-0.67 3.35 -0.34 1.7 0 0 Z " fill="#423D98" transform="translate(315,167)"/>
<path d="M0 0 C7 9.1 7 9.1 7 12 C5 12 5 12 3.2734375 10.3203125 C2.64695312 9.59585938 2.02046875 8.87140625 1.375 8.125 C0.74335938 7.40570313 0.11171875 6.68640625 -0.5390625 5.9453125 C-2 4 -2 4 -2 2 C-1.34 2 -0.68 2 0 2 C0 1.34 0 0.68 0 0 Z " fill="#DCDFEB" transform="translate(257,160)"/>
<path d="M0 0 C2.86724686 0.57344937 3.8614515 0.8614515 6 3 C3.69 4.65 1.38 6.3 -1 8 C-1.33 6.02 -1.66 4.04 -2 2 C-1.34 2 -0.68 2 0 2 C0 1.34 0 0.68 0 0 Z " fill="#EDEBF1" transform="translate(287,142)"/>
<path d="M0 0 C0.8971875 0.5259375 0.8971875 0.5259375 1.8125 1.0625 C0.8225 1.0625 -0.1675 1.0625 -1.1875 1.0625 C-1.290625 1.701875 -1.39375 2.34125 -1.5 3 C-1.726875 3.680625 -1.95375 4.36125 -2.1875 5.0625 C-3.1775 5.3925 -4.1675 5.7225 -5.1875 6.0625 C-5.1875 5.4025 -5.1875 4.7425 -5.1875 4.0625 C-5.8475 4.0625 -6.5075 4.0625 -7.1875 4.0625 C-6.375 2.125 -6.375 2.125 -5.1875 0.0625 C-2.1875 -0.9375 -2.1875 -0.9375 0 0 Z " fill="#EAE9F2" transform="translate(295.1875,210.9375)"/>
<path d="M0 0 C0.66 0.99 1.32 1.98 2 3 C1.34 3.66 0.68 4.32 0 5 C-0.66 5 -1.32 5 -2 5 C-3.6446674 7.46326712 -3.6446674 7.46326712 -5 10 C-5.99 8.68 -6.98 7.36 -8 6 C-5.77644774 3.4429149 -4.24981807 2.75829088 -1 2 C-0.67 1.34 -0.34 0.68 0 0 Z " fill="#CDCCDF" transform="translate(257,203)"/>
<path d="M0 0 C2.0625 0.4375 2.0625 0.4375 4 1 C3.75 3.375 3.75 3.375 3 6 C0.9375 7.3125 0.9375 7.3125 -1 8 C-1.04241723 5.66705225 -1.04092937 3.33297433 -1 1 C-0.67 0.67 -0.34 0.34 0 0 Z " fill="#FAFBF9" transform="translate(280,204)"/>
<path d="M0 0 C0.66 0.66 1.32 1.32 2 2 C1.63318342 4.93453261 1.13562754 5.86437246 -1 8 C-1.66 7.34 -2.32 6.68 -3 6 C-3 5.34 -3 4.68 -3 4 C-4.65 4 -6.3 4 -8 4 C-7.67 3.34 -7.34 2.68 -7 2 C-2.52459016 0.73770492 -2.52459016 0.73770492 0 2 C0 1.34 0 0.68 0 0 Z " fill="#E6E6F0" transform="translate(306,195)"/>
<path d="M0 0 C2.64 0.33 5.28 0.66 8 1 C6.515 2.485 6.515 2.485 5 4 C3.68 3.34 2.36 2.68 1 2 C1 2.99 1 3.98 1 5 C-0.65 5 -2.3 5 -4 5 C-4 4.34 -4 3.68 -4 3 C-2.68 2.67 -1.36 2.34 0 2 C0 1.34 0 0.68 0 0 Z " fill="#F3F3F2" transform="translate(234,163)"/>
<path d="M0 0 C-0.99 0 -1.98 0 -3 0 C-3 0.99 -3 1.98 -3 3 C-7.02040985 3.69584017 -10.08263419 4.1700097 -14 3 C-12.42274653 2.29866401 -10.83788667 1.614417 -9.25 0.9375 C-7.92742187 0.36322266 -7.92742187 0.36322266 -6.578125 -0.22265625 C-3.84743691 -1.04600008 -2.63098653 -0.9773992 0 0 Z " fill="#302D88" transform="translate(262,134)"/>
<path d="M0 0 C2.43836709 2.43836709 3.63091698 4.92380744 5.1875 8 C5.73792969 9.0725 6.28835938 10.145 6.85546875 11.25 C7.42201172 12.61125 7.42201172 12.61125 8 14 C7.67 14.66 7.34 15.32 7 16 C5.81940783 14.2803109 4.65601021 12.54880898 3.5 10.8125 C2.8503125 9.84957031 2.200625 8.88664063 1.53125 7.89453125 C-0.05122341 4.90317208 -0.33964475 3.31760144 0 0 Z " fill="#4F4A95" transform="translate(280,195)"/>
<path d="M0 0 C0.66 0 1.32 0 2 0 C2 4.62 2 9.24 2 14 C1.01 14.495 1.01 14.495 0 15 C-0.38063221 12.6739143 -0.71269945 10.33944736 -1 8 C-0.67 7.67 -0.34 7.34 0 7 C0.04092937 4.66702567 0.04241723 2.33294775 0 0 Z " fill="#3B3891" transform="translate(311,176)"/>
<path d="M0 0 C0.66 0 1.32 0 2 0 C2 0.99 2 1.98 2 3 C2.66 3.33 3.32 3.66 4 4 C2.35 4.66 0.7 5.32 -1 6 C-1 6.66 -1 7.32 -1 8 C-1.66 8 -2.32 8 -3 8 C-1.125 1.125 -1.125 1.125 0 0 Z " fill="#CDCAE3" transform="translate(299,158)"/>
<path d="M0 0 C2.25998595 3.59462331 2.20868087 6.56595675 2.125 10.75 C2.10695313 11.92046875 2.08890625 13.0909375 2.0703125 14.296875 C2.03550781 15.63492188 2.03550781 15.63492188 2 17 C1.67 17 1.34 17 1 17 C-1.48063781 5.47835991 -1.48063781 5.47835991 0 0 Z " fill="#F0EFF2" transform="translate(267,154)"/>
<path d="M0 0 C-1.1858237 3.37503669 -2.27573689 5.64722731 -5 8 C-5.33 5.69 -5.66 3.38 -6 1 C-4 0 -4 0 0 0 Z " fill="#EFEEF3" transform="translate(232,150)"/>
<path d="M0 0 C0 0.66 0 1.32 0 2 C-4.95 3.485 -4.95 3.485 -10 5 C-9.67 3.68 -9.34 2.36 -9 1 C-5.92677456 0.08941469 -3.19902639 -0.08886184 0 0 Z " fill="#ECEDF1" transform="translate(258,132)"/>
<path d="M0 0 C-0.66 0 -1.32 0 -2 0 C-1.67 1.65 -1.34 3.3 -1 5 C-4.10551666 5 -5.35261084 4.4606285 -8 3 C-8 2.34 -8 1.68 -8 1 C-3.375 -1.125 -3.375 -1.125 0 0 Z " fill="#191679" transform="translate(310,203)"/>
<path d="M0 0 C1.32 0.66 2.64 1.32 4 2 C4 3.32 4 4.64 4 6 C2.35 5.67 0.7 5.34 -1 5 C-0.67 3.35 -0.34 1.7 0 0 Z " fill="#FCFAF8" transform="translate(280,149)"/>
<path d="M0 0 C0.78375 0.515625 1.5675 1.03125 2.375 1.5625 C3.24125 2.036875 4.1075 2.51125 5 3 C5.66 2.67 6.32 2.34 7 2 C6.67 3.32 6.34 4.64 6 6 C3.69 5.67 1.38 5.34 -1 5 C-0.67 3.35 -0.34 1.7 0 0 Z " fill="#EF9822" transform="translate(184,89)"/>
<path d="M0 0 C3.01657791 0.14030595 5.23841273 0.29351465 7.51171875 2.40234375 C8.73256066 3.88904235 9.87246522 5.44134898 11 7 C6.69730048 7 5.1322623 4.7990429 2 2 C1.34 1.34 0.68 0.68 0 0 Z " fill="#E3E3EF" transform="translate(295,139)"/>
<path d="M0 0 C3.3 0.33 6.6 0.66 10 1 C9.67 1.66 9.34 2.32 9 3 C6 3.6875 6 3.6875 3 4 C2 3 2 3 0 0 Z " fill="#1C1780" transform="translate(281,221)"/>
<path d="M0 0 C2.76223278 2.76223278 2.57856291 5.20706617 3 9 C1.68 9.33 0.36 9.66 -1 10 C-1.33 9.34 -1.66 8.68 -2 8 C-1.34 7.67 -0.68 7.34 0 7 C-0.185625 6.030625 -0.37125 5.06125 -0.5625 4.0625 C-0.706875 3.051875 -0.85125 2.04125 -1 1 C-0.67 0.67 -0.34 0.34 0 0 Z " fill="#AFB1D1" transform="translate(264,164)"/>
<path d="M0 0 C0.66 0 1.32 0 2 0 C2.625 2.3125 2.625 2.3125 3 5 C2.01 6.485 2.01 6.485 1 8 C0.34 7.67 -0.32 7.34 -1 7 C-1.04254356 5.00045254 -1.04080783 2.99958364 -1 1 C-0.67 0.67 -0.34 0.34 0 0 Z " fill="#2A268A" transform="translate(313,162)"/>
<path d="M0 0 C3.16115776 1.36983503 3.9927092 1.9890638 6 5 C4.35 5.33 2.7 5.66 1 6 C0.34 4.35 -0.32 2.7 -1 1 C-0.67 0.67 -0.34 0.34 0 0 Z " fill="#F4F1F7" transform="translate(249,162)"/>
<path d="M0 0 C-0.33 1.98 -0.66 3.96 -1 6 C-1.66 5.67 -2.32 5.34 -3 5 C-3 4.34 -3 3.68 -3 3 C-3.61875 3.20625 -4.2375 3.4125 -4.875 3.625 C-5.57625 3.74875 -6.2775 3.8725 -7 4 C-7.66 3.34 -8.32 2.68 -9 2 C-5.86501708 0.14223235 -3.62528568 -0.20140476 0 0 Z " fill="#E8E7EF" transform="translate(256,142)"/>
<path d="M0 0 C2.31 0.66 4.62 1.32 7 2 C7 2.99 7 3.98 7 5 C6.34 5 5.68 5 5 5 C5 4.34 5 3.68 5 3 C3.35 3 1.7 3 0 3 C-0.33 3.66 -0.66 4.32 -1 5 C-1.33 4.01 -1.66 3.02 -2 2 C-1.34 2 -0.68 2 0 2 C0 1.34 0 0.68 0 0 Z " fill="#2A268D" transform="translate(292,139)"/>
<path d="M0 0 C0.99 0.33 1.98 0.66 3 1 C1.50163895 4.11198065 -0.19933758 7.0534615 -2 10 C-2.66 9.67 -3.32 9.34 -4 9 C-2.68 6.03 -1.36 3.06 0 0 Z " fill="#E9E8F4" transform="translate(315,195)"/>
<path d="M0 0 C0.33 0 0.66 0 1 0 C1 3.96 1 7.92 1 12 C0.01 11.67 -0.98 11.34 -2 11 C-1.34 7.37 -0.68 3.74 0 0 Z " fill="#E2E0EB" transform="translate(268,189)"/>
<path d="M0 0 C0.33 0 0.66 0 1 0 C0.67 3.3 0.34 6.6 0 10 C-0.66 8.68 -1.32 7.36 -2 6 C-2.66 5.67 -3.32 5.34 -4 5 C-2.69254251 3.31295807 -1.35827971 1.64639965 0 0 Z " fill="#E8E9F1" transform="translate(263,195)"/>
<path d="M0 0 C0.33 0.66 0.66 1.32 1 2 C1.66 2.33 2.32 2.66 3 3 C1.35 5.97 -0.3 8.94 -2 12 C-3.40907283 9.18185434 -2.50872691 7.82722796 -1.5625 4.875 C-1.27503906 3.96492187 -0.98757813 3.05484375 -0.69140625 2.1171875 C-0.46324219 1.41851562 -0.23507812 0.71984375 0 0 Z " fill="#D6DAE5" transform="translate(276,160)"/>
<path d="M0 0 C2.09350689 3.4019487 2.17942163 6.05272412 2 10 C0.35 8.35 -1.3 6.7 -3 5 C-2.01 4.67 -1.02 4.34 0 4 C0 2.68 0 1.36 0 0 Z " fill="#E5E6ED" transform="translate(262,155)"/>
<path d="M0 0 C0 3.48961209 -0.90379374 5.11480295 -2.5 8.1875 C-2.9640625 9.08855469 -3.428125 9.98960937 -3.90625 10.91796875 C-4.2671875 11.60503906 -4.628125 12.29210937 -5 13 C-5.66 12.01 -6.32 11.02 -7 10 C-3.535 5.05 -3.535 5.05 0 0 Z " fill="#6863A9" transform="translate(288,148)"/>
<path d="M0 0 C2.9375 0.75 2.9375 0.75 6 2 C6.875 4.125 6.875 4.125 7 6 C4.0625 5.25 4.0625 5.25 1 4 C0.125 1.875 0.125 1.875 0 0 Z " fill="#E0DEEB" transform="translate(246,212)"/>
<path d="M0 0 C1.98 0.66 3.96 1.32 6 2 C6 2.99 6 3.98 6 5 C4.35 5 2.7 5 1 5 C0.67 3.35 0.34 1.7 0 0 Z " fill="#1A177D" transform="translate(240,143)"/>
<path d="M0 0 C3.3 0.33 6.6 0.66 10 1 C10 1.33 10 1.66 10 2 C8.37828761 2.38897161 6.75245075 2.76078298 5.125 3.125 C4.22007812 3.33382812 3.31515625 3.54265625 2.3828125 3.7578125 C1.59648437 3.83773437 0.81015625 3.91765625 0 4 C-0.66 3.34 -1.32 2.68 -2 2 C-1.34 2 -0.68 2 0 2 C0 1.34 0 0.68 0 0 Z " fill="#332E8F" transform="translate(263,136)"/>
<path d="M0 0 C0 0.66 0 1.32 0 2 C-3 4 -3 4 -5.1875 3.625 C-5.785625 3.41875 -6.38375 3.2125 -7 3 C-7 2.34 -7 1.68 -7 1 C-4.53721199 -0.231394 -2.7204945 -0.07159196 0 0 Z " fill="#1C1584" transform="translate(260,221)"/>
<path d="M0 0 C1.5 1.0625 1.5 1.0625 3 3 C3.1875 6.6875 3.1875 6.6875 3 10 C0.64551835 7.44931155 0.01672076 6.28982642 -0.1875 2.75 C-0.125625 1.8425 -0.06375 0.935 0 0 Z " fill="#2B2685" transform="translate(273,192)"/>
<path d="M0 0 C0.33 0.99 0.66 1.98 1 3 C-1.25 4.625 -1.25 4.625 -4 6 C-5.32 5.34 -6.64 4.68 -8 4 C-5.36 2.68 -2.72 1.36 0 0 Z " fill="#EDEFF0" transform="translate(296,161)"/>
<path d="M0 0 C2.31 0.33 4.62 0.66 7 1 C6.67 1.99 6.34 2.98 6 4 C3.69 3.67 1.38 3.34 -1 3 C-0.67 2.01 -0.34 1.02 0 0 Z " fill="#F1F0F3" transform="translate(278,130)"/>
<path d="M0 0 C0.66 0.33 1.32 0.66 2 1 C1.25 2.9375 1.25 2.9375 0 5 C-2.125 5.75 -2.125 5.75 -4 6 C-3.67 4.68 -3.34 3.36 -3 2 C-2.01 2 -1.02 2 0 2 C0 1.34 0 0.68 0 0 Z " fill="#1B177C" transform="translate(304,209)"/>
<path d="M0 0 C0 3.99904969 -1.72586967 5.80200422 -4 9 C-4.99 8.34 -5.98 7.68 -7 7 C-4.69 4.69 -2.38 2.38 0 0 Z " fill="#D4D8E6" transform="translate(264,187)"/>
<path d="M0 0 C0.99 0 1.98 0 3 0 C3 0.99 3 1.98 3 3 C4.32 2.67 5.64 2.34 7 2 C7 2.99 7 3.98 7 5 C4.69 5 2.38 5 0 5 C0 3.33333333 0 1.66666667 0 0 Z " fill="#1F1A7E" transform="translate(248,138)"/>
<path d="M0 0 C0.33 0.66 0.66 1.32 1 2 C1.66 2 2.32 2 3 2 C3.33 2.99 3.66 3.98 4 5 C3.01 5.33 2.02 5.66 1 6 C-0.5 4.625 -0.5 4.625 -2 3 C-2 2.34 -2 1.68 -2 1 C-1.34 0.67 -0.68 0.34 0 0 Z " fill="#EDEBF3" transform="translate(240,205)"/>
<path d="M0 0 C-0.99 0.495 -0.99 0.495 -2 1 C-2 1.66 -2 2.32 -2 3 C-2.99 3 -3.98 3 -5 3 C-5.33 3.66 -5.66 4.32 -6 5 C-6.66 4.01 -7.32 3.02 -8 2 C-4.77208445 -0.1519437 -3.71599191 -0.20086443 0 0 Z " fill="#FCFBF9" transform="translate(248,188)"/>
<path d="M0 0 C-2.35953094 2.35953094 -3.77895617 2.49141413 -7 3 C-7.33 2.34 -7.66 1.68 -8 1 C-4.93251126 -0.86240388 -3.40254489 -1.2151946 0 0 Z " fill="#F8F8F9" transform="translate(299,189)"/>
<path d="M0 0 C0.66 0.33 1.32 0.66 2 1 C-0.64 2.98 -3.28 4.96 -6 7 C-6.66 6.34 -7.32 5.68 -8 5 C-6.71475739 4.13619741 -5.42157581 3.28419631 -4.125 2.4375 C-3.04605469 1.72400391 -3.04605469 1.72400391 -1.9453125 0.99609375 C-1.30335938 0.66738281 -0.66140625 0.33867187 0 0 Z " fill="#D6DAE9" transform="translate(262,185)"/>
<path d="M0 0 C-3.00617269 3.00617269 -5.82381598 2.59585316 -10 3 C-8.0130571 -0.97388579 -3.91761109 -0.08705802 0 0 Z " fill="#221E84" transform="translate(292,174)"/>
<path d="M0 0 C1.125 1.75 1.125 1.75 2 4 C1.125 6.25 1.125 6.25 0 8 C-0.66 8 -1.32 8 -2 8 C-1.125 2.25 -1.125 2.25 0 0 Z " fill="#312C8F" transform="translate(226,160)"/>
<path d="M0 0 C0.33 0.99 0.66 1.98 1 3 C2.65 3.33 4.3 3.66 6 4 C6 4.33 6 4.66 6 5 C0.25 5.125 0.25 5.125 -2 4 C-2 3.34 -2 2.68 -2 2 C-1.34 2 -0.68 2 0 2 C0 1.34 0 0.68 0 0 Z " fill="#E2E1F2" transform="translate(293,145)"/>
<path d="M0 0 C1.98 0 3.96 0 6 0 C5 3 5 3 2 5 C1.34 3.35 0.68 1.7 0 0 Z " fill="#F98717" transform="translate(521,0)"/>
<path d="M0 0 C0.66 0.99 1.32 1.98 2 3 C0.35 5.31 -1.3 7.62 -3 10 C-3.33 9.34 -3.66 8.68 -4 8 C-3.22265625 6.0546875 -3.22265625 6.0546875 -2.0625 3.875 C-1.49208984 2.78832031 -1.49208984 2.78832031 -0.91015625 1.6796875 C-0.60980469 1.12539062 -0.30945313 0.57109375 0 0 Z " fill="#363090" transform="translate(259,196)"/>
<path d="M0 0 C0.66 0.33 1.32 0.66 2 1 C-0.64 2.65 -3.28 4.3 -6 6 C-6.66 5.34 -7.32 4.68 -8 4 C-6.71349294 3.30289269 -5.42059335 2.61757124 -4.125 1.9375 C-3.40570313 1.55464844 -2.68640625 1.17179688 -1.9453125 0.77734375 C-1.30335938 0.52082031 -0.66140625 0.26429688 0 0 Z " fill="#342E90" transform="translate(294,165)"/>
<path d="M0 0 C1.98 1.65 3.96 3.3 6 5 C5.34 5.66 4.68 6.32 4 7 C2.35 5.02 0.7 3.04 -1 1 C-0.67 0.67 -0.34 0.34 0 0 Z " fill="#ECEBF2" transform="translate(243,154)"/>
</svg>
